<?xml version="1.0" encoding="utf-8"?>
<!-- Generator: Adobe Illustrator 21.0.0, SVG Export Plug-In . SVG Version: 6.00 Build 0)  -->
<svg version="1.1" id="Layer_1" xmlns="http://www.w3.org/2000/svg" xmlns:xlink="http://www.w3.org/1999/xlink" x="0px" y="0px"
	 viewBox="0 0 400 90" style="enable-background:new 0 0 400 90;" xml:space="preserve">
<style type="text/css">
	.st0{fill:#205081;}
	.st1{fill:#59AFE1;}
</style>
<g transform="translate(-1)">
	<path class="st0" d="M117.3,25.3c-0.2-0.6-0.9-1.1-1.5-1.1H101c-0.7,0-1.3,0.4-1.5,1.1L80.8,84.5c-0.1,0.5-0.1,1,0.2,1.4
		c0.3,0.4,0.8,0.6,1.3,0.6h10.2c0.7,0,1.3-0.5,1.5-1.1l12.8-43.6c0,0,0.4-1.1,1.5-1.1c1.2,0,1.5,1.1,1.5,1.1l6,20.6h-8
		c-0.7,0-1.3,0.5-1.6,1.1l-2.2,8.2c-0.2,0.9,0.3,1.7,1.1,2c0.1,0.1,0.3,0.1,0.4,0.1h13.7l3.6,11.6c0.2,0.6,0.9,1.1,1.5,1.1h10.2
		c0.9,0,1.6-0.7,1.6-1.6c0-0.1,0-0.4-0.1-0.5L117.3,25.3 M161.7,77.5c-0.1-0.4-0.3-0.9-0.7-1.1c-0.4-0.3-0.9-0.4-1.3-0.2
		c-1.6,0.4-3.3,0.6-4.5,0.6c-2.3,0-3.3-1-3.3-3.3V50.9h9.1c0.9,0,1.6-0.7,1.6-1.6v-7.2c0-0.9-0.7-1.6-1.6-1.6h-9.1V29.7
		c0-0.9-0.7-1.6-1.6-1.6c-0.1,0-0.1,0-0.2,0l-9.4,1.3c-0.8,0.1-1.3,0.8-1.3,1.6v9.6h-5.1c-0.9,0-1.6,0.7-1.6,1.6v7.1
		c0,0.9,0.7,1.6,1.6,1.6h5.1V75c0,8.3,4.4,12.5,13,12.5c2.5,0,6.6-0.6,9.4-1.5c0.7-0.3,1.1-1,1.1-1.7L161.7,77.5 M179,23h-9.4
		c-0.9,0-1.6,0.7-1.6,1.6l0,0V85c0,0.9,0.7,1.6,1.6,1.6h9.4c0.9,0,1.6-0.7,1.6-1.6V24.7C180.6,23.7,179.9,23,179,23 M209.4,69.7v5.5
		c-1.6,0.9-4.4,2-7.7,2c-2.9,0-3.8-0.9-3.8-3.8c0-2.8,0.6-3.7,4-3.7H209.4L209.4,69.7z M203.1,39.7c-4.7,0-10.5,0.8-14.7,1.9
		c-0.8,0.2-1.3,1-1.1,1.8l1.1,6.8c0.1,0.4,0.3,0.8,0.6,1.1c0.4,0.2,0.8,0.4,1.2,0.3c3.9-0.8,7.9-1.2,11.3-1.2c6.7,0,7.9,1.4,7.9,6v4
		h-10.1c-9.6,0-13.7,4-13.7,13.3c0,8.9,4.5,14,12.3,14c4.5,0,9.1-1.3,12.9-3.5l0.4,1.5c0.2,0.7,0.9,1.2,1.6,1.2h7.6
		c0.9,0,1.6-0.7,1.6-1.6V56.5C221.9,44.2,216.8,39.7,203.1,39.7L203.1,39.7z M245.4,58.1c-5.8-1.5-5.8-1.6-5.8-4.7
		c0-2.1,0.2-3.2,5-3.2c3.3,0,8.2,0.6,11.2,1.1c0.4,0.1,0.9,0,1.2-0.3c0.4-0.3,0.6-0.6,0.6-1.1l0.9-7.2c0.1-0.8-0.4-1.6-1.2-1.8
		c-3.6-0.9-8.6-1.3-12.8-1.3c-14.4,0-17.4,5.5-17.4,13.6c0,9,1.7,12,12.7,14.7c7.3,1.8,7.3,3,7.3,5.2c0,2.8-0.2,3.8-5,3.8
		c-3.8,0-8.3-0.6-12.2-1.6c-0.9-0.2-1.7,0.3-1.9,1.1c0,0.1,0,0.1,0,0.1l-1.2,6.8c-0.1,0.8,0.3,1.6,1.1,1.8
		c4.3,1.3,10.3,2.3,14.9,2.3c14,0,16.8-5.8,16.8-14.6C259.6,63.2,257.8,61.4,245.4,58.1 M281.7,58.1c-5.8-1.5-5.8-1.6-5.8-4.7
		c0-2.1,0.2-3.2,5-3.2c3.3,0,8.1,0.6,11.3,1.1c0.4,0.1,0.9,0,1.2-0.3c0.4-0.3,0.6-0.6,0.6-1.1l0.9-7.2c0.1-0.8-0.4-1.6-1.2-1.8
		c-3.6-0.9-8.6-1.3-12.8-1.3c-14.4,0-17.4,5.5-17.4,13.6c0,9,1.7,12,12.7,14.7c7.3,1.8,7.3,3,7.3,5.2c0,2.8-0.2,3.8-5,3.8
		c-3.8,0-8.3-0.6-12.2-1.6c-0.4-0.1-0.9-0.1-1.3,0.2c-0.4,0.2-0.6,0.6-0.7,1.1l-1.2,6.8c-0.1,0.8,0.3,1.6,1.1,1.8
		c4.3,1.3,10.3,2.3,14.9,2.3c14,0,16.8-5.8,16.8-14.6C295.8,63.2,294.1,61.4,281.7,58.1 M312.5,40.6h-9.4c-0.9,0-1.6,0.7-1.6,1.6V85
		c0,0.9,0.7,1.6,1.6,1.6l0,0h9.4c0.9,0,1.6-0.7,1.6-1.6l0,0V42.2C314,41.3,313.3,40.6,312.5,40.6 M343.1,69.7v5.5
		c-1.6,0.9-4.4,2-7.7,2c-2.9,0-3.8-0.9-3.8-3.8c0-2.8,0.6-3.7,4-3.7H343.1L343.1,69.7z M336.8,39.7c-4.7,0-10.5,0.8-14.7,1.9
		c-0.8,0.2-1.3,1-1.1,1.8l1.1,6.8c0.1,0.4,0.3,0.8,0.6,1.1c0.4,0.2,0.8,0.4,1.2,0.3c3.9-0.8,7.9-1.2,11.3-1.2c6.7,0,7.9,1.4,7.9,6v4
		H333c-9.6,0-13.7,4-13.7,13.3c0,8.9,4.5,14,12.3,14c4.5,0,9.1-1.3,12.9-3.5l0.4,1.5c0.2,0.7,0.9,1.2,1.6,1.2h7.6
		c0.9,0,1.6-0.7,1.6-1.6l0,0V56.5C355.6,44.2,350.5,39.7,336.8,39.7L336.8,39.7z M390.3,39.7c-5,0-11.8,1.7-17.4,4.4l-0.7-2.3
		c-0.2-0.7-0.9-1.1-1.5-1.1h-6.9c-0.9,0-1.6,0.7-1.6,1.6V85c0,0.9,0.7,1.6,1.6,1.6l0,0h9.4c0.9,0,1.6-0.7,1.6-1.6l0,0V55.3
		c3.4-1.7,8.2-3.5,11-3.5c2.1,0,2.9,0.8,2.9,2.9V85c0,0.9,0.7,1.6,1.6,1.6l0,0h9.4c0.9,0,1.6-0.7,1.6-1.6l0,0V53.6
		C401.1,44.4,397.4,39.7,390.3,39.7 M312,23h-9.4c-0.9,0-1.6,0.7-1.6,1.6l0,0v8.3c0,0.9,0.7,1.6,1.6,1.6l0,0h9.4
		c0.9,0,1.6-0.7,1.6-1.6l0,0v-8.2C313.5,23.7,312.8,23,312,23L312,23"/>
	<path class="st1" d="M77.5,23.3c-0.3-0.2-0.6-0.4-1.1-0.4c-0.2,0-0.4,0.1-0.6,0.1c-3.7,1.4-7.5,2.5-10.9,3.3
		c-0.7,0.1-1.3,0.7-1.5,1.3c-2.4,7-8.9,13.5-15.5,20.4c-0.3,0.3-0.6,0.6-1.3,0.6s-1-0.4-1.3-0.6c-6.7-6.9-13.1-13.3-15.6-20.2
		c-0.2-0.6-0.8-1.1-1.5-1.3c-3.4-0.9-7.2-2.1-10.9-3.5c-0.2-0.1-0.4-0.1-0.6-0.1c-0.4,0-0.7,0.1-1.1,0.4c-0.5,0.4-0.7,0.9-0.6,1.5
		c0.6,5.7,2.8,11.3,6.9,17.2c3.8,5.5,8.8,10.6,13.6,15.5c8.9,9.1,17.3,17.6,18,27.6c0.1,0.9,0.8,1.6,1.7,1.6h10.6
		c0.9,0,1.7-0.8,1.7-1.7v-0.1c-0.4-6.7-2.8-13.3-7.7-20.3c-1-1.5-2.1-2.9-3.2-4.3c-0.4-0.6-0.3-1.3,0.1-1.6c0.4-0.4,0.7-0.7,1.1-1.1
		c4.8-4.9,9.8-10,13.6-15.5c4-5.9,6.3-11.4,6.9-17.1C78.3,24.3,78,23.7,77.5,23.3 M92.8,3.3c-0.4-0.6-1.1-0.9-1.8-0.9
		c-0.4,0-0.7,0.1-1,0.3c-12.8,7-27.6,10.7-42.9,10.7S17,9.8,4.3,2.8C3.9,2.5,3.6,2.5,3.2,2.5c-0.7,0-1.3,0.4-1.8,0.9
		c-0.6,0.8-0.6,2.1,0.4,3c6.4,4.7,13.5,8.5,21,11.1c7.8,2.6,15.9,4,24.2,4l0,0c8.3,0,16.4-1.3,24.2-4c7.5-2.6,14.6-6.3,21-11.1
		C93.4,5.5,93.4,4.2,92.8,3.3 M35.5,65.2c-0.2-0.3-0.6-0.5-1.2-0.5c-0.8,0-1.3,0.6-1.4,0.8c-4.4,6.7-6.7,13-6.9,19.3
		c0,0.5,0.1,0.9,0.5,1.3s0.8,0.6,1.3,0.6h10.4c0.9,0,1.6-0.7,1.7-1.6c0.2-3,1.2-6.1,2.9-9.4c0.6-1.1,0.1-2.1-0.2-2.6
		C40.6,70.8,38.6,68.5,35.5,65.2 M46.7,28.4c3.3,0,5.2-0.2,5.8-0.2c0.8,0,1.6,0.6,1.6,1.6c0,0.3-0.1,0.5-0.1,0.6
		c-0.4,1.1-2.4,5.3-6.1,8.9c-0.4,0.4-0.9,0.5-1.2,0.5l0,0c-0.4,0-0.8-0.1-1.2-0.5c-3.7-3.6-5.7-7.7-6.1-8.9
		c-0.1-0.1-0.1-0.4-0.1-0.6c0-0.9,0.8-1.6,1.6-1.6S43.3,28.4,46.7,28.4L46.7,28.4"/>
</g>
</svg>
