<?xml version="1.0" encoding="utf-8"?>
<!-- Generator: Adobe Illustrator 21.0.0, SVG Export Plug-In . SVG Version: 6.00 Build 0)  -->
<svg version="1.1" id="Layer_1" xmlns="http://www.w3.org/2000/svg" xmlns:xlink="http://www.w3.org/1999/xlink" x="0px" y="0px"
	 viewBox="0 0 225 90" style="enable-background:new 0 0 225 90;" xml:space="preserve">
<style type="text/css">
	.st0{fill:#E53238;}
	.st1{fill:#0064D2;}
	.st2{fill:#F5AF02;}
	.st3{fill:#86B817;}
</style>
<g>
	<path class="st0" d="M29.2,19.6c-15.8,0-29,6.7-29,27c0,16.1,8.9,26.2,29.5,26.2c24.2,0,25.8-16,25.8-16H43.7c0,0-2.5,8.6-14.8,8.6
		c-10,0-17.1-6.7-17.1-16.2h44.8v-5.9C56.6,34,50.7,19.6,29.2,19.6L29.2,19.6z M28.8,27.2c9.5,0,16,5.8,16,14.5H12.1
		C12.1,32.5,20.5,27.2,28.8,27.2z"/>
	<path class="st1" d="M56.6,0v62.6c0,3.6-0.3,8.5-0.3,8.5h11.2c0,0,0.4-3.6,0.4-6.9c0,0,5.5,8.7,20.6,8.7c15.8,0,26.6-11,26.6-26.7
		c0-14.7-9.9-26.4-26.6-26.4c-15.6,0-20.5,8.4-20.5,8.4V0H56.6z M85.7,27.5c10.8,0,17.6,8,17.6,18.7c0,11.5-7.9,19-17.5,19
		c-11.5,0-17.7-9-17.7-18.9C68.1,37.1,73.6,27.5,85.7,27.5L85.7,27.5z"/>
	<path class="st2" d="M143,19.6c-23.8,0-25.4,13-25.4,15.1h11.9c0,0,0.6-7.6,12.7-7.6c7.8,0,13.9,3.6,13.9,10.5v2.5h-13.9
		c-18.5,0-28.2,5.4-28.2,16.4c0,10.8,9,16.7,21.2,16.7c16.6,0,22-9.2,22-9.2c0,3.7,0.3,7.2,0.3,7.2h10.5c0,0-0.4-4.5-0.4-7.3V39.2
		C167.5,23,154.5,19.6,143,19.6z M156,47.5v3.3c0,4.3-2.6,14.9-18.1,14.9c-8.5,0-12.1-4.2-12.1-9.2C125.8,47.5,138,47.5,156,47.5
		L156,47.5z"/>
	<path class="st3" d="M161.1,21.7h13.3l19.2,38.4l19.1-38.4h12.1L190,90h-12.7l10-19L161.1,21.7L161.1,21.7z"/>
</g>
</svg>
