<?xml version="1.0" encoding="utf-8"?>
<!-- Generator: Adobe Illustrator 21.0.0, SVG Export Plug-In . SVG Version: 6.00 Build 0)  -->
<svg version="1.1" id="Layer_1" xmlns="http://www.w3.org/2000/svg" xmlns:xlink="http://www.w3.org/1999/xlink" x="0px" y="0px"
	 viewBox="0 0 400 90" style="enable-background:new 0 0 400 90;" xml:space="preserve">
<style type="text/css">
	.st0{fill:#82B541;}
</style>
<g>
	<path class="st0" d="M51.3,7.6c-2-1.1-7.8-0.4-14.7,1.7c-12.1,8.3-22.4,20.5-23.1,40.1c-0.1,0.5-1.3-0.1-1.6-0.2
		C8.7,43,7.4,36.4,10.1,26.8c0.5-0.8-1.2-1.9-1.5-1.6c-0.6,0.6-3.1,3.3-4.8,6.2C-4.4,45.7,1,64,15.4,72c14.4,8,32.6,2.8,40.6-11.6
		C65.4,43.8,56.7,10.7,51.3,7.6L51.3,7.6z"/>
	<path d="M102.9,15.6c-17.1,0-29.5,12.7-29.5,30.2c0,17.6,12.4,30,30.1,30c8.9,0,16-2.8,21.7-8.6c1.7-1.8,1.9-3.6,1.9-4.2
		c0-2.9-2.1-4.9-5-4.9c-1.5,0-2.7,0.6-4.1,1.9c-3.2,3-7.4,6-14.4,6c-9.7,0-17.6-7.3-18.1-16.6H124c4.2,0,6.2-2,6.2-6
		c0-1.2,0-2-0.2-3.7C127.9,24.6,117.8,15.6,102.9,15.6L102.9,15.6L102.9,15.6z M102.9,25c9.3,0,15.2,5.9,15.6,15.4H85.4
		C86.3,31.6,93.7,25,102.9,25L102.9,25z M167.1,15.6c-7.8,0-15.4,4.5-18.5,10.7v-3.8c0-5.9-4.6-6.2-5.5-6.2c-2.7,0-5.6,1.6-5.6,6.2
		v46.3c0,6.2,4.9,6.5,5.9,6.5c1,0,5.9-0.3,5.9-6.5V43.9c0-10.8,6.1-18.3,14.9-18.3c8.5,0,12.6,5.6,12.6,17v26.1
		c0,6.2,4.9,6.5,5.9,6.5c1,0,5.9-0.3,5.9-6.5V38.9C188.5,27.7,182.8,15.6,167.1,15.6C167.1,15.6,167.1,15.6,167.1,15.6z M241.6,16.2
		c-2.7,0-4.7,1.6-5.9,4.7l-16.1,40.4l-16-40.4c-1.2-3.2-3.2-4.7-6-4.7c-3.2,0-5.9,2.5-5.9,5.6c0,0.8,0.1,1.8,0.7,3.3l18.5,43.6
		c2.2,5.3,5.8,6.4,8.5,6.4c2.7,0,6.3-1.1,8.5-6.4l18.6-43.9c0.6-1.5,0.7-2.7,0.7-3.2C247.4,18.6,244.9,16.2,241.6,16.2L241.6,16.2z
		 M275.8,15.6c-7.5,0-14.5,2.1-19.7,5.9c-1.8,1.2-2.6,2.7-2.6,4.6c0,2.6,2,4.7,4.6,4.7c1.1,0,2.3-0.4,3.5-1.2
		c4.5-3,8.7-4.4,13.2-4.4c8.7,0,13.7,4.4,13.7,12.1v1.3c-19.5,0-39.4,2.4-39.4,19.4c0,12.2,10.4,17.7,20.8,17.7
		c8.2,0,14.8-3.3,19-9.4v3c0,4.4,3,6,5.5,6c0.5,0,5.3-0.2,5.3-6V38.1C299.7,24,290.8,15.6,275.8,15.6L275.8,15.6L275.8,15.6z
		 M286,47.3h2.5V50c0,9.9-6.3,16.3-16.1,16.3c-2.6,0-11.3-0.6-11.3-8.6C261.1,48.4,275.3,47.3,286,47.3L286,47.3z M330.3,26.9
		c5.1,0,5.4-4,5.4-4.8c0-2.4-1.4-4.9-5.4-4.9h-10.6V6.5c0-4.8-3.1-6.5-5.8-6.5c-1,0-5.9,0.3-5.9,6.5v50.8c0,11.7,5.8,17.9,16.7,17.9
		c2.8,0,5.6-0.5,7.4-1.3c2.1-1,3.3-2.7,3.3-4.7c0-2.7-2-4.7-4.7-4.7c-0.5,0-1.3,0.1-2.1,0.4c-1,0.3-1.7,0.3-2.4,0.3
		c-4.5,0-6.5-2.9-6.5-9.1V26.9L330.3,26.9L330.3,26.9z M369.2,15.6c-17.8,0-30.7,12.6-30.7,30c0,8.5,3.1,16.2,8.8,21.7
		c5.6,5.5,13.4,8.5,21.9,8.5c17.6,0,30.8-13,30.8-30.2C400,28.2,387,15.6,369.2,15.6L369.2,15.6L369.2,15.6z M369.2,65.8
		c-12.2,0-18.6-10.2-18.6-20.2c0-13.8,9.6-20.1,18.6-20.1c8.9,0,18.6,6.3,18.6,20.1C387.8,59.5,378.1,65.8,369.2,65.8z"/>
</g>
</svg>
