<?xml version="1.0" encoding="utf-8"?>
<!-- Generator: Adobe Illustrator 21.0.0, SVG Export Plug-In . SVG Version: 6.00 Build 0)  -->
<svg version="1.1" id="Layer_1" xmlns="http://www.w3.org/2000/svg" xmlns:xlink="http://www.w3.org/1999/xlink" x="0px" y="0px"
	 viewBox="0 0 225 90" style="enable-background:new 0 0 225 90;" xml:space="preserve">
<style type="text/css">
	.st0{fill:#1F70C1;}
</style>
<path class="st0" d="M0,0v6.2h43.8V0H0z M50,0v6.2h62.4c0,0-6.4-6.2-14.8-6.2H50z M124.7,0v6.2h37.8L160.2,0H124.7z M189.5,0
	l-2.2,6.2h37.4V0H189.5z M0,12v6.2h43.8V12H0z M50,12v6.1h69.7c0,0-0.8-4.7-2.2-6.1H50L50,12z M124.7,12v6.1h41.9l-2.1-6.1H124.7
	L124.7,12z M185,12l-2.1,6.1h41.7V12H185z M12.6,23.9v6.2h19v-6.2L12.6,23.9L12.6,23.9z M62.6,23.9v6.2h19v-6.2L62.6,23.9L62.6,23.9
	z M100,23.9v6.2h19c0,0,1.2-3.3,1.2-6.2L100,23.9L100,23.9z M137.2,23.9v6.2h33.6l-2.2-6.2L137.2,23.9L137.2,23.9z M180.9,23.9
	l-2.2,6.2h33.8v-6.2L180.9,23.9L180.9,23.9z M12.6,35.9v6.2h19v-6.2H12.6L12.6,35.9z M62.6,35.9v6.2H111c0,0,4.1-3.2,5.3-6.2H62.6z
	 M137.2,35.9v6.2h19v-3.4l1.2,3.4h34.7l1.3-3.4v3.4h19v-6.2h-35.6l-1.9,5.2l-1.9-5.2H137.2z M12.6,47.9v6.2h19v-6.2H12.6z
	 M62.6,47.9v6.2h53.8c-1.3-3-5.3-6.2-5.3-6.2H62.6z M137.2,47.9v6.2h19v-6.2H137.2z M159.7,47.9l2.3,6.2h26.1l2.2-6.2H159.7z
	 M193.4,47.9v6.2h19v-6.2H193.4z M12.6,59.9V66h19v-6.2h-19V59.9z M62.6,59.9V66h19v-6.2h-19V59.9z M100,59.9V66h20.2
	c0-2.9-1.2-6.2-1.2-6.2h-19V59.9z M137.2,59.9V66h19v-6.2h-19V59.9z M164,59.9l2.2,6.2h17.5l2.2-6.2C185.9,59.9,164,59.9,164,59.9z
	 M193.4,59.9V66h19v-6.2h-19V59.9z M0.3,71.9V78h43.8v-6.2L0.3,71.9L0.3,71.9z M50,71.9V78h67.4c1.4-1.4,2.2-6.2,2.2-6.2L50,71.9
	L50,71.9z M125,71.9V78h31.2v-6.2L125,71.9L125,71.9z M168.3,71.9l2.3,6.2h8.9l2.1-6.2H168.3z M193.4,71.9V78H225v-6.2L193.4,71.9
	L193.4,71.9z M0.3,83.8V90h43.8v-6.2H0.3z M50,83.8V90h47.6c8.4,0,14.8-6.1,14.8-6.1L50,83.8L50,83.8z M125,83.8V90h31.2v-6.2H125z
	 M172.6,83.8l2.2,6.1h0.4l2.2-6.1H172.6z M193.4,83.8V90H225v-6.2H193.4z"/>
</svg>
